HIERARCHY
ROOT Hips
{
	OFFSET 0.000000 83.214638 0.000000
	CHANNELS 6 Xposition Yposition Zposition Xrotation Yrotation Zrotation
	JOINT Pelvis
	{
		OFFSET 0.000000 0.000000 0.000000
		CHANNELS 3 Xrotation Yrotation Zrotation
		JOINT LeftUpLeg
		{
			OFFSET 8.479700 -4.795502 -0.379100
			CHANNELS 3 Xrotation Yrotation Zrotation
			JOINT LeftLeg
			{
				OFFSET 0.024144 -32.555107 0.112900
				CHANNELS 3 Xrotation Yrotation Zrotation
				JOINT LeftFoot
				{
					OFFSET -0.024144 -32.638630 -3.012600
					CHANNELS 3 Xrotation Yrotation Zrotation
					JOINT LeftToeBase
					{
						OFFSET 0.970200 -13.225400 11.864200
						CHANNELS 3 Xrotation Yrotation Zrotation
						End Site
						{
							OFFSET 0.000000 12.319262 0.000000
						}
					}
					JOINT LFootTongue
					{
						OFFSET 1.142400 -1.059800 6.665200
						CHANNELS 3 Xrotation Yrotation Zrotation
						End Site
						{
							OFFSET 0.000000 12.319262 0.000000
						}
					}
				}
				JOINT LeftPantLeg
				{
					OFFSET 0.918482 -16.533964 -2.284700
					CHANNELS 3 Xrotation Yrotation Zrotation
					End Site
					{
						OFFSET 0.350399 24.744368 0.000000
					}
				}
			}
		}
		JOINT RightUpLeg
		{
			OFFSET -8.479700 -4.795502 -0.379100
			CHANNELS 3 Xrotation Yrotation Zrotation
			JOINT RightLeg
			{
				OFFSET -0.023144 -32.555092 0.112900
				CHANNELS 3 Xrotation Yrotation Zrotation
				JOINT RightFoot
				{
					OFFSET 0.023144 -32.638641 -3.012700
					CHANNELS 3 Xrotation Yrotation Zrotation
					JOINT RightToeBase
					{
						OFFSET -0.970200 -13.225400 11.864200
						CHANNELS 3 Xrotation Yrotation Zrotation
						End Site
						{
							OFFSET 0.000000 12.319244 0.000000
						}
					}
					JOINT RFootTongue
					{
						OFFSET -1.142200 -1.059800 6.665200
						CHANNELS 3 Xrotation Yrotation Zrotation
						End Site
						{
							OFFSET 0.000000 12.319243 0.000000
						}
					}
				}
				JOINT RightPantLeg
				{
					OFFSET -0.919482 -16.533978 -2.284800
					CHANNELS 3 Xrotation Yrotation Zrotation
					End Site
					{
						OFFSET -0.350400 24.744419 0.000000
					}
				}
			}
		}
	}
	JOINT Spine
	{
		OFFSET 0.000000 7.722000 1.166200
		CHANNELS 3 Xrotation Yrotation Zrotation
		JOINT Spine1
		{
			OFFSET 0.000000 12.024101 0.248800
			CHANNELS 3 Xrotation Yrotation Zrotation
			JOINT Spine2
			{
				OFFSET 0.000000 11.502998 -0.491200
				CHANNELS 3 Xrotation Yrotation Zrotation
				JOINT Neck
				{
					OFFSET 0.000000 18.430702 -3.123100
					CHANNELS 3 Xrotation Yrotation Zrotation
					JOINT Head
					{
						OFFSET 0.000000 9.051102 1.034000
						CHANNELS 3 Xrotation Yrotation Zrotation
						JOINT HairB
						{
							OFFSET 0.208400 24.786102 24.822300
							CHANNELS 3 Xrotation Yrotation Zrotation
							End Site
							{
								OFFSET 0.000000 32.263779 0.000000
							}
						}
						JOINT HairA
						{
							OFFSET -7.081100 24.428299 23.196600
							CHANNELS 3 Xrotation Yrotation Zrotation
							End Site
							{
								OFFSET 0.000000 32.263779 0.000000
							}
						}
						JOINT Hat
						{
							OFFSET 16.728800 15.048294 -15.439601
							CHANNELS 3 Xrotation Yrotation Zrotation
							End Site
							{
								OFFSET 0.000000 32.263779 0.000000
							}
						}
					}
				}
				JOINT LeftShoulder
				{
					OFFSET 6.197800 13.665199 -4.064700
					CHANNELS 3 Xrotation Yrotation Zrotation
					JOINT LeftArm
					{
						OFFSET 7.778100 -0.187103 -1.709300
						CHANNELS 3 Xrotation Yrotation Zrotation
						JOINT LeftForeArm
						{
							OFFSET 22.049376 0.000000 0.000000
							CHANNELS 3 Xrotation Yrotation Zrotation
							JOINT LeftHand
							{
								OFFSET 23.009392 0.000000 0.000000
								CHANNELS 3 Xrotation Yrotation Zrotation
								JOINT LeftHandThumb1
								{
									OFFSET 3.507191 -2.063065 3.133727
									CHANNELS 3 Xrotation Yrotation Zrotation
									JOINT LeftHandThumb2
									{
										OFFSET 3.101337 -1.790558 1.790558
										CHANNELS 3 Xrotation Yrotation Zrotation
										JOINT LeftHandThumb3
										{
											OFFSET 3.058640 -1.765907 1.765906
											CHANNELS 3 Xrotation Yrotation Zrotation
											End Site
											{
												OFFSET -0.415260 3.926476 -0.049563
											}
										}
									}
								}
								JOINT LeftHandIndex1
								{
									OFFSET 11.334419 -0.901459 3.706815
									CHANNELS 3 Xrotation Yrotation Zrotation
									JOINT LeftHandIndex2
									{
										OFFSET 3.283112 0.000000 0.000000
										CHANNELS 3 Xrotation Yrotation Zrotation
										JOINT LeftHandIndex3
										{
											OFFSET 3.323853 0.000000 0.000000
											CHANNELS 3 Xrotation Yrotation Zrotation
											End Site
											{
												OFFSET -1.135597 3.097809 0.402452
											}
										}
									}
								}
								JOINT LeftHandMiddle1
								{
									OFFSET 11.335861 0.000000 0.000000
									CHANNELS 3 Xrotation Yrotation Zrotation
									JOINT LeftHandMiddle2
									{
										OFFSET 3.410492 0.000000 0.000000
										CHANNELS 3 Xrotation Yrotation Zrotation
										JOINT LeftHandMiddle3
										{
											OFFSET 3.312172 0.000000 0.000000
											CHANNELS 3 Xrotation Yrotation Zrotation
											End Site
											{
												OFFSET -1.150200 3.080154 0.400270
											}
										}
									}
								}
								JOINT LeftHandRing1
								{
									OFFSET 11.514786 -0.013176 -3.003090
									CHANNELS 3 Xrotation Yrotation Zrotation
									JOINT LeftHandRing2
									{
										OFFSET 3.053307 0.000000 0.000000
										CHANNELS 3 Xrotation Yrotation Zrotation
										JOINT LeftHandRing3
										{
											OFFSET 3.295807 0.000000 0.000000
											CHANNELS 3 Xrotation Yrotation Zrotation
											End Site
											{
												OFFSET -1.281006 3.013344 0.375733
											}
										}
									}
								}
								JOINT LeftHandPinky1
								{
									OFFSET 10.518692 -0.960396 -5.730441
									CHANNELS 3 Xrotation Yrotation Zrotation
									JOINT LeftHandPinky2
									{
										OFFSET 2.861649 0.000000 0.000000
										CHANNELS 3 Xrotation Yrotation Zrotation
										JOINT LeftHandPinky3
										{
											OFFSET 2.863380 0.000000 0.000000
											CHANNELS 3 Xrotation Yrotation Zrotation
											End Site
											{
												OFFSET -0.843597 2.711159 0.369971
											}
										}
									}
								}
							}
							JOINT LSleeve
							{
								OFFSET 6.676277 -0.344902 -1.011730
								CHANNELS 3 Xrotation Yrotation Zrotation
								End Site
								{
									OFFSET 0.000000 14.885353 0.000000
								}
							}
						}
					}
				}
				JOINT RightShoulder
				{
					OFFSET -6.197800 13.665199 -4.064700
					CHANNELS 3 Xrotation Yrotation Zrotation
					JOINT RightArm
					{
						OFFSET -7.778100 -0.187103 -1.709300
						CHANNELS 3 Xrotation Yrotation Zrotation
						JOINT RightForeArm
						{
							OFFSET -22.049376 0.000000 0.000000
							CHANNELS 3 Xrotation Yrotation Zrotation
							JOINT RightHand
							{
								OFFSET -23.009392 0.000000 0.000000
								CHANNELS 3 Xrotation Yrotation Zrotation
								JOINT RightHandThumb1
								{
									OFFSET -3.507191 -2.063065 3.133727
									CHANNELS 3 Xrotation Yrotation Zrotation
									JOINT RightHandThumb2
									{
										OFFSET -3.101337 -1.790558 1.790558
										CHANNELS 3 Xrotation Yrotation Zrotation
										JOINT RightHandThumb3
										{
											OFFSET -3.058640 -1.765907 1.765906
											CHANNELS 3 Xrotation Yrotation Zrotation
											End Site
											{
												OFFSET 0.415260 3.926476 -0.049563
											}
										}
									}
								}
								JOINT RightHandIndex1
								{
									OFFSET -11.334419 -0.901459 3.706815
									CHANNELS 3 Xrotation Yrotation Zrotation
									JOINT RightHandIndex2
									{
										OFFSET -3.283112 0.000000 0.000000
										CHANNELS 3 Xrotation Yrotation Zrotation
										JOINT RightHandIndex3
										{
											OFFSET -3.323853 0.000000 0.000000
											CHANNELS 3 Xrotation Yrotation Zrotation
											End Site
											{
												OFFSET 1.135597 3.097809 0.402452
											}
										}
									}
								}
								JOINT RightHandMiddle1
								{
									OFFSET -11.335861 0.000000 0.000000
									CHANNELS 3 Xrotation Yrotation Zrotation
									JOINT RightHandMiddle2
									{
										OFFSET -3.410492 0.000000 0.000000
										CHANNELS 3 Xrotation Yrotation Zrotation
										JOINT RightHandMiddle3
										{
											OFFSET -3.312172 0.000000 0.000000
											CHANNELS 3 Xrotation Yrotation Zrotation
											End Site
											{
												OFFSET 1.150200 3.080154 0.400270
											}
										}
									}
								}
								JOINT RightHandRing1
								{
									OFFSET -11.514786 -0.013176 -3.003090
									CHANNELS 3 Xrotation Yrotation Zrotation
									JOINT RightHandRing2
									{
										OFFSET -3.053307 0.000000 0.000000
										CHANNELS 3 Xrotation Yrotation Zrotation
										JOINT RightHandRing3
										{
											OFFSET -3.295807 0.000000 0.000000
											CHANNELS 3 Xrotation Yrotation Zrotation
											End Site
											{
												OFFSET 1.281006 3.013344 0.375733
											}
										}
									}
								}
								JOINT RightHandPinky1
								{
									OFFSET -10.518692 -0.960396 -5.730441
									CHANNELS 3 Xrotation Yrotation Zrotation
									JOINT RightHandPinky2
									{
										OFFSET -2.861649 0.000000 0.000000
										CHANNELS 3 Xrotation Yrotation Zrotation
										JOINT RightHandPinky3
										{
											OFFSET -2.863380 0.000000 0.000000
											CHANNELS 3 Xrotation Yrotation Zrotation
											End Site
											{
												OFFSET 0.843597 2.711159 0.369971
											}
										}
									}
								}
							}
							JOINT RSleeve
							{
								OFFSET -6.676277 -0.344902 -1.011730
								CHANNELS 3 Xrotation Yrotation Zrotation
								End Site
								{
									OFFSET 0.000000 14.885353 0.000000
								}
							}
						}
					}
				}
				JOINT Backpack
				{
					OFFSET 0.000000 -2.471497 36.677502
					CHANNELS 3 Xrotation Yrotation Zrotation
					End Site
					{
						OFFSET 0.000000 20.427315 0.000000
					}
				}
				JOINT Hood
				{
					OFFSET 0.000000 18.754097 -10.431000
					CHANNELS 3 Xrotation Yrotation Zrotation
					JOINT Hood1
					{
						OFFSET 0.000000 -5.011002 -7.685901
						CHANNELS 3 Xrotation Yrotation Zrotation
						End Site
						{
							OFFSET 0.000000 9.175140 0.000000
						}
					}
				}
				JOINT LHoodieString
				{
					OFFSET 5.250500 16.397697 3.089900
					CHANNELS 3 Xrotation Yrotation Zrotation
					JOINT LHoodieString1
					{
						OFFSET 0.257700 -6.364304 3.694600
						CHANNELS 3 Xrotation Yrotation Zrotation
						JOINT LHoodieString2
						{
							OFFSET 0.000000 -9.643799 2.679100
							CHANNELS 3 Xrotation Yrotation Zrotation
							End Site
							{
								OFFSET 0.000000 10.009018 0.000000
							}
						}
					}
				}
				JOINT RHoodieString
				{
					OFFSET -5.250500 16.397697 3.089900
					CHANNELS 3 Xrotation Yrotation Zrotation
					JOINT RHoodieString1
					{
						OFFSET -0.257700 -6.364304 3.694600
						CHANNELS 3 Xrotation Yrotation Zrotation
						JOINT RHoodieString2
						{
							OFFSET 0.000000 -9.643799 2.679100
							CHANNELS 3 Xrotation Yrotation Zrotation
							End Site
							{
								OFFSET 0.000000 10.009018 0.000000
							}
						}
					}
				}
			}
			JOINT LBackpack_Strap
			{
				OFFSET 15.223200 -7.719803 -6.610900
				CHANNELS 3 Xrotation Yrotation Zrotation
				End Site
				{
					OFFSET 0.000000 16.040596 0.000000
				}
			}
			JOINT RBackpack_Strap
			{
				OFFSET -15.223000 -7.719803 -6.610900
				CHANNELS 3 Xrotation Yrotation Zrotation
				End Site
				{
					OFFSET 0.000000 16.040596 0.000000
				}
			}
		}
	}
	JOINT BoyFacialAnim_Joint
	{
		OFFSET 1.000000 -82.208099 -1.550900
		CHANNELS 3 Xrotation Yrotation Zrotation
		End Site
		{
			OFFSET 0.000000 30.012791 0.000000
		}
	}
}
MOTION
Frames: 4
Frame Time: 0.016667
-0.558912 74.601212 0.199243 12.342087 -55.906225 11.199793 -0.000000 -0.000001 0.000000 -43.260796 8.047312 26.843583 40.974216 -9.840613 -9.814543 -6.009136 -1.458793 -3.177401 -0.000000 0.000001 0.000000 -0.000000 0.000001 0.000000 -0.000001 0.000000 0.000000 -31.217352 -10.079505 -20.073789 50.554352 8.633746 -0.928881 -33.502556 -4.640723 10.675305 0.000000 0.000003 0.000001 0.000000 0.000003 0.000001 0.000001 0.000000 -0.000001 11.714973 1.381340 -2.646872 -7.573168 6.733732 -2.520089 0.220138 5.397602 -4.595493 -12.580311 9.083971 1.899285 -4.773442 33.430754 5.660079 -0.000000 -0.000000 -0.000000 -0.000000 -0.000000 -0.000000 -0.000000 -0.000000 -0.000000 -31.809707 13.410708 5.488762 38.429533 -24.730804 -35.179193 -0.000002 -63.060848 0.000006 -30.857589 -7.137406 36.647848 -1.721979 5.255661 -13.188778 20.563213 52.534649 0.189394 -0.000000 -0.000003 0.000001 12.956316 -4.115554 -90.449709 8.952196 4.964087 -122.050973 -0.000001 0.000001 -0.000002 9.405880 8.323730 -88.069060 9.453614 4.613520 -128.051704 -0.000004 -0.000001 0.000005 6.580860 8.180115 -91.968101 8.173844 5.371751 -113.426021 0.000002 0.000002 -0.000000 -3.227039 20.111999 -75.571720 5.936856 5.850454 -90.841400 -0.000001 -0.000001 -0.000000 -0.000002 -0.000002 0.000004 0.882301 7.689500 10.202003 7.550379 1.963473 57.853731 -0.000062 75.685183 0.000069 35.320875 10.055733 5.680935 -3.341835 -3.276461 13.774163 20.875247 -54.536045 -0.016267 -0.000002 -0.000000 0.000001 11.836827 5.289153 89.687426 7.123277 -3.951883 122.001604 -0.000002 0.000001 0.000002 8.171049 -7.103232 87.309010 7.522364 -3.673016 127.998483 -0.000002 0.000004 0.000000 4.801492 -6.930768 91.181325 6.503993 -4.276066 113.385990 -0.000004 -0.000001 0.000000 -4.344464 -18.765265 74.899219 4.725365 -4.656678 90.839781 0.000000 0.000000 -0.000001 0.000000 0.000000 0.000002 0.000000 0.000000 0.000001 0.000000 0.000000 0.000001 0.000000 0.000000 0.000001 0.000000 0.000000 0.000001 0.000000 0.000000 0.000000 -0.000000 0.000002 -0.000000 0.000000 0.000000 0.000001 0.000000 0.000000 0.000000 -0.000000 0.000002 -0.000000 0.000000 0.000000 -0.000000 0.000000 0.000000 -0.000000 -0.000000 -0.000001 0.000000 
-0.583873 74.608398 0.192732 12.296419 -55.905399 11.140754 -0.000000 -0.000001 0.000000 -43.212459 8.040949 26.885105 40.945031 -9.790952 -9.823353 -6.000345 -1.527609 -3.197435 0.000000 0.000003 -0.000000 0.000000 0.000003 -0.000000 0.000000 0.000003 -0.000001 -31.152940 -10.112267 -20.036223 50.525908 8.633684 -0.928878 -33.513153 -4.641984 10.657288 -0.000000 -0.000001 0.000000 -0.000000 -0.000001 0.000000 -0.000001 -0.000000 0.000001 11.714978 1.381390 -2.647192 -7.573176 6.733737 -2.520088 0.220137 5.397598 -4.595489 -12.569274 9.762727 2.145932 -4.477372 32.927884 5.264198 0.000000 -0.000000 -0.000000 0.000000 -0.000000 -0.000000 0.000000 -0.000000 -0.000000 -31.777817 12.952645 5.310878 38.682896 -24.912963 -34.934553 -0.000062 -62.511667 -0.000061 -31.157533 -7.391293 36.475263 -1.721955 5.255653 -13.188770 20.563184 52.534619 0.189400 0.000001 -0.000001 -0.000004 12.956322 -4.115566 -90.449716 8.952206 4.964074 -122.050986 -0.000001 0.000001 0.000002 9.405894 8.323724 -88.069074 9.453626 4.613522 -128.051717 -0.000003 0.000000 0.000000 6.580887 8.180086 -91.968115 8.173818 5.371724 -113.426021 0.000002 0.000003 -0.000000 -3.227030 20.111996 -75.571713 5.936852 5.850462 -90.841386 -0.000004 -0.000001 0.000001 0.000001 0.000001 0.000000 1.018007 7.684539 10.077997 7.270296 2.953153 57.421073 0.000041 75.186190 -0.000047 34.670962 9.864177 5.516719 -3.341842 -3.276457 13.774156 20.875259 -54.536045 -0.016284 -0.000003 0.000004 0.000006 11.836829 5.289171 89.687398 7.123257 -3.951885 122.001631 -0.000004 -0.000001 0.000002 8.171024 -7.103231 87.309038 7.522355 -3.673060 127.998428 -0.000003 0.000001 -0.000000 4.801475 -6.930760 91.181325 6.503990 -4.276082 113.385983 -0.000004 0.000000 0.000004 -4.344467 -18.765248 74.899233 4.725361 -4.656696 90.839767 -0.000000 -0.000003 -0.000000 -0.000000 0.000003 0.000002 0.000001 0.000004 -0.000001 0.000001 0.000004 -0.000001 0.000001 0.000004 -0.000001 0.000001 0.000004 -0.000001 0.000001 0.000004 -0.000000 0.000000 -0.000001 0.000001 0.000001 0.000004 -0.000001 0.000001 0.000004 -0.000000 0.000000 -0.000001 0.000001 -0.000000 0.000000 0.000000 -0.000000 0.000000 0.000000 -0.000000 -0.000001 0.000000 
-0.616031 74.607544 0.187882 12.257832 -55.850375 11.089416 -0.000000 -0.000000 -0.000000 -43.203457 8.029860 26.915098 40.931046 -9.746109 -9.832453 -5.985398 -1.638349 -3.209909 -0.000000 -0.000002 0.000000 -0.000000 -0.000002 -0.000000 0.000000 -0.000000 0.000001 -31.090348 -10.143394 -20.001734 50.525935 8.632659 -0.928945 -33.556170 -4.693249 10.627482 -0.000000 -0.000001 -0.000000 -0.000000 -0.000001 -0.000000 -0.000000 -0.000001 0.000001 11.714994 1.381486 -2.647722 -7.573171 6.733738 -2.520090 0.220140 5.397591 -4.595493 -12.608601 10.491373 2.412571 -4.224775 32.405754 4.896690 -0.000000 -0.000000 0.000000 -0.000000 -0.000000 0.000000 -0.000000 -0.000000 0.000000 -31.754075 12.465672 5.128833 39.012295 -25.126437 -34.726990 0.000018 -61.838784 -0.000002 -31.459629 -7.671469 36.216170 -1.721947 5.255647 -13.188789 20.563207 52.534632 0.189401 -0.000002 0.000003 0.000002 12.956329 -4.115572 -90.449723 8.952217 4.964094 -122.051000 -0.000000 -0.000001 -0.000005 9.405912 8.323709 -88.069067 9.453597 4.613509 -128.051717 -0.000001 0.000000 -0.000002 6.580895 8.180092 -91.968115 8.173834 5.371732 -113.426035 -0.000000 0.000004 -0.000002 -3.227015 20.111997 -75.571720 5.936854 5.850448 -90.841407 0.000001 0.000001 -0.000002 0.000001 -0.000000 0.000006 1.163711 7.679726 9.947279 6.979113 3.931136 56.951729 -0.000051 74.671747 0.000081 33.974566 9.690996 5.366331 -3.341843 -3.276462 13.774168 20.875234 -54.536048 -0.016295 -0.000005 0.000000 0.000003 11.836832 5.289146 89.687426 7.123266 -3.951900 122.001604 -0.000002 0.000000 0.000005 8.171031 -7.103234 87.309010 7.522360 -3.673045 127.998455 0.000003 0.000001 0.000002 4.801489 -6.930784 91.181338 6.503996 -4.276067 113.386003 -0.000001 0.000000 0.000002 -4.344460 -18.765262 74.899212 4.725362 -4.656691 90.839774 0.000001 -0.000003 -0.000000 0.000000 -0.000005 -0.000000 0.000001 -0.000003 0.000001 0.000001 -0.000003 0.000001 0.000001 -0.000003 0.000001 0.000001 -0.000003 0.000001 0.000001 -0.000003 0.000001 0.000001 -0.000001 -0.000000 0.000001 -0.000003 0.000001 0.000001 -0.000003 0.000001 0.000001 -0.000001 -0.000000 0.000000 0.000003 -0.000001 0.000000 0.000003 -0.000001 -0.000000 -0.000000 -0.000000 
-0.644773 74.613373 0.185377 12.224673 -55.832664 11.036751 0.000000 -0.000001 0.000000 -43.171754 8.021086 26.956551 40.908079 -9.697700 -9.841454 -5.978150 -1.721185 -3.226446 -0.000000 -0.000002 -0.000000 -0.000000 -0.000002 -0.000000 -0.000000 0.000004 -0.000001 -31.024840 -10.179440 -19.961242 50.496637 8.632378 -0.928981 -33.573972 -4.709366 10.607922 -0.000000 -0.000001 -0.000000 -0.000000 -0.000001 -0.000000 0.000003 -0.000000 0.000002 11.714995 1.381574 -2.648051 -7.573172 6.733753 -2.520092 0.220139 5.397590 -4.595490 -12.694468 11.267587 2.689842 -3.974851 31.886892 4.534251 0.000000 0.000000 -0.000000 0.000000 0.000000 -0.000000 0.000000 0.000000 -0.000000 -31.738349 11.953796 4.944353 39.461575 -25.312645 -34.536865 -0.000001 -61.081043 -0.000007 -31.790050 -7.989019 35.931795 -1.721961 5.255662 -13.188774 20.563207 52.534622 0.189370 0.000001 -0.000001 0.000000 12.956332 -4.115558 -90.449716 8.952185 4.964090 -122.050973 -0.000001 -0.000001 -0.000004 9.405890 8.323717 -88.069074 9.453617 4.613537 -128.051731 -0.000002 0.000000 0.000004 6.580887 8.180098 -91.968115 8.173827 5.371724 -113.426028 0.000002 0.000003 -0.000003 -3.227022 20.112003 -75.571720 5.936845 5.850450 -90.841400 0.000002 0.000001 -0.000000 0.000002 0.000002 -0.000003 1.316089 7.674880 9.811793 6.684431 4.902604 56.464303 0.000075 74.142912 -0.000069 33.251092 9.531741 5.218437 -3.341847 -3.276466 13.774164 20.875264 -54.536048 -0.016281 0.000001 -0.000000 0.000003 11.836832 5.289165 89.687398 7.123241 -3.951881 122.001618 0.000002 0.000001 0.000002 8.171043 -7.103241 87.309031 7.522354 -3.673036 127.998455 -0.000006 0.000002 -0.000001 4.801478 -6.930774 91.181325 6.503993 -4.276080 113.386010 -0.000003 0.000004 0.000003 -4.344465 -18.765262 74.899226 4.725378 -4.656693 90.839788 -0.000001 -0.000004 -0.000000 -0.000000 -0.000001 0.000002 0.000001 -0.000000 0.000001 0.000001 -0.000000 0.000001 0.000001 -0.000000 0.000001 0.000001 -0.000000 0.000001 0.000001 -0.000000 -0.000000 0.000001 0.000001 -0.000001 0.000001 -0.000000 0.000001 0.000001 -0.000000 -0.000000 0.000001 0.000001 -0.000001 0.000000 -0.000000 0.000000 0.000000 -0.000000 0.000000 0.000000 -0.000001 0.000000 
